<svg width="32" height="32" viewBox="0 0 32 32" fill="none" xmlns="http://www.w3.org/2000/svg">
<rect width="32" height="32" rx="4" fill="black"/>
<path d="M20.3989 24.1023C14.9241 24.1023 10.3747 19.7071 10.2976 14.2323C10.2204 9.83706 13.0735 5.98158 17.2374 4.43938C18.5483 3.97673 19.782 3.82251 20.9387 3.89962C21.2471 3.89962 21.3242 3.51407 21.0158 3.35985C19.3965 2.74297 17.623 2.43454 15.7723 2.51164C8.90958 2.74297 3.20347 8.37197 2.81792 15.2347C2.43237 23.0228 8.60114 29.5 16.3121 29.5C22.4038 29.5 27.5701 25.4132 29.1894 19.8613C29.2665 19.5529 28.881 19.3986 28.7267 19.63C26.9532 22.3288 23.8688 24.1023 20.3989 24.1023Z" fill="white"/>
<path d="M26.1822 10.1453C25.5653 9.21994 24.7942 8.52595 23.7918 8.06329C22.7894 7.52353 21.6327 7.2922 20.399 7.21509C19.1652 7.21509 18.0086 7.52353 17.0061 8.06329C16.0037 8.60306 15.1555 9.29705 14.6157 10.1453C13.9989 10.9935 13.6904 11.9959 13.6904 13.1525C13.6904 14.0778 13.9218 14.926 14.3844 15.7743C14.8471 16.5453 15.4639 17.2393 16.235 17.7791V19.4755C16.235 19.8611 16.3893 20.0924 16.6206 20.4008C16.8519 20.6322 17.1604 20.7864 17.5459 20.7864H18.7797V19.4755C18.7797 19.2442 18.9339 19.09 19.1652 19.09C19.3965 19.09 19.5508 19.2442 19.5508 19.4755V20.7093H21.2472V19.4755C21.2472 19.2442 21.4014 19.09 21.6327 19.09C21.864 19.09 22.0183 19.2442 22.0183 19.4755V20.7093H23.252C23.6376 20.7093 23.8689 20.555 24.1773 20.3237C24.4087 20.0924 24.5629 19.7839 24.5629 19.3984V17.702C25.334 17.1622 25.9509 16.4682 26.4135 15.6971C26.8762 14.926 27.1075 14.0007 27.1075 13.0754C27.1075 11.9959 26.7991 11.0706 26.1822 10.1453ZM19.6279 14.6176C19.3194 15.2345 18.6254 15.6971 17.9315 15.6971C16.8519 15.6971 15.9266 14.7718 15.9266 13.5381C15.9266 13.2296 16.0037 12.8441 16.1579 12.6128C16.3122 12.3043 16.7748 12.2272 17.0061 12.4585C17.7772 13.2296 18.6254 13.6152 19.3194 13.8465C19.6279 13.9236 19.7821 14.3092 19.6279 14.6176ZM22.8665 15.62C22.1725 15.62 21.4785 15.2345 21.1701 14.5405C21.0158 14.2321 21.1701 13.8465 21.4785 13.7694C22.1725 13.5381 23.0978 13.0754 23.7918 12.3814C24.0231 12.1501 24.4858 12.2272 24.64 12.5356C24.7942 12.8441 24.8713 13.1525 24.8713 13.461C24.7942 14.6947 23.946 15.62 22.8665 15.62Z" fill="white"/>
</svg>